<?xml version="1.0" encoding="utf-8"?>
<!-- Generator: Adobe Illustrator 24.2.3, SVG Export Plug-In . SVG Version: 6.00 Build 0)  -->
<svg version="1.1" id="Layer_1" xmlns="http://www.w3.org/2000/svg" xmlns:xlink="http://www.w3.org/1999/xlink" x="0px" y="0px"
	 viewBox="0 0 858 117" style="enable-background:new 0 0 858 117;" xml:space="preserve">
<g>
	<path d="M43.3,116.5c-5.7,0-10.9-0.7-15.8-2.1c-4.9-1.4-9.3-3.3-13.1-5.8c-3.8-2.5-7-5.3-9.5-8.4c-2.5-3.1-4.1-6.3-4.9-9.8L21.4,84
		c1.4,3.6,3.8,6.7,7.4,9.4c3.5,2.6,7.9,4,13.3,4.1c5.7,0.1,10.3-1.1,13.8-3.7c3.6-2.6,5.4-5.9,5.4-9.9c0-3.5-1.4-6.5-4.2-8.9
		c-2.8-2.4-6.7-4.2-11.6-5.5l-14.6-3.8c-5.4-1.4-10.2-3.5-14.4-6.3C12.3,56.5,9,53,6.7,48.8c-2.3-4.2-3.5-9-3.5-14.6
		c0-10.6,3.5-18.8,10.5-24.7c7-5.9,16.9-8.9,29.7-8.9c7.1,0,13.4,1,18.8,3.1c5.4,2.1,9.9,5,13.5,8.9c3.6,3.8,6.4,8.4,8.3,13.6
		l-21.3,6.6c-1.3-3.6-3.6-6.7-7-9.3c-3.4-2.6-7.7-3.8-13-3.8c-5.3,0-9.5,1.2-12.6,3.7c-3,2.5-4.6,5.9-4.6,10.4
		c0,3.5,1.2,6.3,3.6,8.3c2.4,2,5.7,3.6,9.8,4.6l14.7,3.7C63.3,52.7,70.8,57,76.1,63c5.3,6.1,8,12.9,8,20.3c0,6.6-1.6,12.4-4.8,17.4
		c-3.2,5-7.8,8.8-13.9,11.6C59.3,115.1,52,116.5,43.3,116.5z"/>
	<path d="M102.9,114.6V2.6h21.9v112H102.9z"/>
	<path d="M149.1,114.6V2.6H172l-1,19.4v92.8L149.1,114.6z M226.7,114.6l-72.5-100l17.8-12l72.2,99.5L226.7,114.6z M226.7,114.6V2.6
		h21.8v112H226.7z"/>
	<path d="M322.2,116.5c-10.9,0-20.5-2.5-29-7.4c-8.4-5-15-11.8-19.8-20.5c-4.8-8.7-7.2-18.7-7.2-30c0-11.3,2.4-21.3,7.2-30
		c4.8-8.7,11.4-15.5,19.8-20.5c8.4-5,18-7.4,28.9-7.4c7.7,0,14.8,1.4,21.4,4.1c6.6,2.7,12.4,6.5,17.4,11.4c5,4.9,8.8,10.4,11.4,16.7
		L352,40.3c-1.8-3.9-4.2-7.4-7.2-10.3c-3-2.9-6.4-5.2-10.2-6.9c-3.8-1.7-8-2.5-12.5-2.5c-6.5,0-12.3,1.6-17.4,4.9
		c-5.1,3.3-9,7.7-11.8,13.4c-2.8,5.7-4.2,12.2-4.2,19.7c0,7.5,1.4,14.1,4.3,19.8c2.9,5.7,6.9,10.2,12,13.4c5.1,3.3,11,4.9,17.6,4.9
		c4.6,0,8.8-0.9,12.6-2.6c3.8-1.8,7.1-4.2,10.1-7.3c2.9-3.1,5.3-6.7,7.1-10.7l20.3,7.4c-2.7,6.5-6.5,12.3-11.4,17.3
		c-5,5-10.7,8.9-17.4,11.7C337.2,115.1,330,116.5,322.2,116.5z"/>
	<path d="M388.8,114.6V2.6h21.9v112H388.8z M405.4,22.6v-20h54.2v20H405.4z M405.4,67.5V48h47.5v19.5H405.4z M405.4,114.6v-20h54.9
		v20H405.4z"/>
	<path d="M516.4,37.9V18.1c2.7,0.2,5.5-0.5,8.6-2c3.1-1.5,6.2-3.6,9.2-6.1c3-2.5,5.7-5,7.9-7.6L556.1,16c-3.8,4.3-7.9,8.1-12.2,11.6
		c-4.3,3.5-8.7,6.2-13.2,8.1C526.2,37.6,521.5,38.3,516.4,37.9z M540.1,114.6V14.2l2.1-11.7h18.9l-0.2,112H540.1z"/>
	<path d="M621.4,0.8c7.6,0,14,1.4,19.3,4.1c5.3,2.7,9.6,6.5,13,11.3c3.4,4.8,5.8,10.4,7.4,16.7c1.5,6.3,2.3,13.1,2.3,20.4
		c0,8.6-0.9,16.8-2.7,24.4c-1.8,7.6-4.6,14.3-8.2,20.2c-3.7,5.8-8.4,10.4-14.2,13.8c-5.8,3.4-12.7,5-20.8,5
		c-5.9,0-11.6-0.9-17.2-2.6c-5.6-1.8-10.6-4.2-15.1-7.3l10.7-16c3.4,2.2,7,3.9,10.8,5c3.8,1.1,7.2,1.7,10.3,1.7
		c8.3,0,14.9-3.7,19.6-11c4.7-7.3,6.9-18.7,6.5-34.3l4.5,2.9c-2.5,5.9-6.2,10.6-11.4,14.2c-5.1,3.6-11.3,5.4-18.4,5.4
		c-7,0-13.3-1.7-18.9-5c-5.5-3.4-9.9-7.9-13-13.5c-3.1-5.7-4.6-12.1-4.6-19.2c0-7,1.7-13.3,5-18.6c3.3-5.4,8-9.6,14-12.7
		C606.2,2.3,613.3,0.8,621.4,0.8z M621.4,19.2c-3.5,0-6.7,0.8-9.4,2.4c-2.8,1.6-5,3.8-6.6,6.6c-1.6,2.8-2.4,6-2.4,9.6
		c0,3.6,0.8,6.9,2.4,9.8c1.6,2.9,3.8,5.1,6.6,6.7c2.8,1.6,5.9,2.4,9.4,2.4c3.5,0,6.7-0.8,9.4-2.4c2.8-1.6,5-3.8,6.6-6.7
		c1.7-2.9,2.5-6.1,2.5-9.8c0-3.6-0.8-6.8-2.5-9.6c-1.7-2.8-3.9-5-6.6-6.6C628.1,20,624.9,19.2,621.4,19.2z"/>
	<path d="M689.2,83.7L673.4,75L723,2.6l13.1,12.3L689.2,83.7z M673.4,92.5V75l12.3-1.3h80v18.7H673.4z M725.6,114.6v-100l-2.4-12h23
		v112H725.6z"/>
	<path d="M817.4,116.5c-5.1,0-10.4-0.9-15.8-2.6c-5.4-1.7-10.2-4.3-14.6-7.7c-4.3-3.4-7.5-7.6-9.5-12.6l20-5.9
		c2.3,3.4,5.1,5.9,8.4,7.5c3.3,1.6,6.6,2.4,10.2,2.4c5.5,0,10.1-1.7,13.5-5c3.5-3.4,5.2-7.9,5.2-13.5c0-5.2-1.7-9.6-5-13.1
		c-3.4-3.5-7.8-5.3-13.4-5.3c-3.3,0-6.3,0.7-9.1,2.2c-2.8,1.5-4.9,3.3-6.4,5.3l-19.7-4.3L788,2.6h63.4v19.8h-60.2L788,3.2h21.8
		l-8.8,62.7l-11.7-2.1c1-1.9,2.5-4,4.5-6.3c2-2.3,4.6-4.5,7.6-6.6c3-2.1,6.5-3.8,10.3-5.1c3.8-1.3,8.1-1.9,12.8-1.8
		c6.1,0,11.6,1.5,16.6,4.4c5,2.9,9,6.9,11.9,12c2.9,5.1,4.4,11,4.4,17.7c0,7.6-1.7,14.2-5.1,20c-3.4,5.8-8.1,10.3-14.1,13.5
		C832.2,114.9,825.3,116.5,817.4,116.5z"/>
</g>
</svg>
