<?xml version="1.0" encoding="utf-8"?>
<!-- Generator: Adobe Illustrator 24.2.3, SVG Export Plug-In . SVG Version: 6.00 Build 0)  -->
<svg version="1.1" id="Layer_1" xmlns="http://www.w3.org/2000/svg" xmlns:xlink="http://www.w3.org/1999/xlink" x="0px" y="0px"
	 viewBox="0 0 404 232" style="enable-background:new 0 0 404 232;" xml:space="preserve">
<style type="text/css">
	.st0{enable-background:new    ;}
</style>
<g class="st0">
	<path d="M38.7,101.7c-4.9,0-9.6-0.6-13.9-1.8c-4.3-1.2-8.1-2.9-11.5-5.1c-3.4-2.2-6.1-4.6-8.3-7.3c-2.2-2.7-3.6-5.6-4.3-8.5
		l18.8-5.6c1.2,3.2,3.4,5.9,6.4,8.2c3.1,2.3,7,3.5,11.6,3.6c4.9,0.1,9-1,12.1-3.2c3.1-2.2,4.7-5.1,4.7-8.7c0-3.1-1.2-5.7-3.7-7.8
		c-2.5-2.1-5.9-3.7-10.1-4.8l-12.7-3.4c-4.8-1.2-9-3.1-12.6-5.5c-3.6-2.5-6.5-5.5-8.5-9.2c-2.1-3.6-3.1-7.9-3.1-12.7
		c0-9.2,3.1-16.5,9.2-21.6c6.1-5.2,14.8-7.8,26-7.8C45,0.3,50.5,1.2,55.2,3c4.7,1.8,8.7,4.4,11.8,7.8c3.2,3.4,5.6,7.3,7.3,11.9
		l-18.6,5.7c-1.1-3.2-3.2-5.9-6.2-8.1c-3-2.2-6.8-3.4-11.3-3.4c-4.7,0-8.3,1.1-11,3.2c-2.7,2.1-4,5.2-4,9.1c0,3.1,1,5.5,3.1,7.3
		c2.1,1.8,5,3.1,8.6,4.1l12.9,3.2c8.4,2.1,14.9,5.7,19.6,11.1c4.7,5.3,7,11.2,7,17.8c0,5.8-1.4,10.8-4.2,15.2
		c-2.8,4.3-6.9,7.7-12.2,10.2C52.7,100.5,46.3,101.7,38.7,101.7z"/>
	<path d="M90.8,100V2H110v98H90.8z"/>
	<path d="M131.3,100V2h20l-0.8,16.9v81.2L131.3,100z M199.2,100l-63.4-87.5L151.3,2l63.1,87.1L199.2,100z M199.2,100V2h19v98H199.2z
		"/>
	<path d="M282.8,101.7c-9.5,0-18-2.2-25.3-6.5c-7.4-4.3-13.2-10.3-17.4-17.9c-4.2-7.6-6.3-16.4-6.3-26.3c0-9.9,2.1-18.6,6.3-26.3
		c4.2-7.6,10-13.6,17.3-17.9c7.3-4.3,15.8-6.5,25.3-6.5c6.7,0,13,1.2,18.8,3.6c5.8,2.4,10.9,5.7,15.2,9.9c4.3,4.2,7.7,9.1,10,14.6
		L308.8,35c-1.6-3.5-3.7-6.5-6.3-9c-2.6-2.6-5.6-4.6-9-6c-3.4-1.4-7-2.2-10.9-2.2c-5.7,0-10.8,1.4-15.2,4.3
		c-4.4,2.8-7.9,6.7-10.4,11.7c-2.5,4.9-3.7,10.7-3.7,17.2c0,6.5,1.3,12.3,3.8,17.3c2.5,5,6,8.9,10.5,11.8c4.5,2.8,9.6,4.3,15.4,4.3
		c4,0,7.7-0.8,11-2.3c3.3-1.5,6.3-3.7,8.8-6.4c2.6-2.7,4.6-5.8,6.2-9.4l17.8,6.4c-2.3,5.7-5.7,10.7-10,15.1
		c-4.3,4.4-9.4,7.8-15.2,10.2C295.9,100.5,289.6,101.7,282.8,101.7z"/>
	<path d="M341,100V2h19.2v98H341z M355.5,19.5V2H403v17.5H355.5z M355.5,58.8V41.8h41.6v17.1H355.5z M355.5,100V82.5h48V100H355.5z"
		/>
</g>
<g class="st0">
	<path d="M55.5,162.9v-17.4c2.3,0.2,4.9-0.4,7.6-1.8c2.7-1.4,5.4-3.1,8-5.3c2.7-2.2,5-4.4,6.9-6.6l12.2,11.9
		c-3.4,3.7-6.9,7.1-10.6,10.2c-3.7,3-7.6,5.4-11.6,7.1C64,162.7,59.8,163.3,55.5,162.9z M76.2,230v-87.8L78,132h16.5l-0.1,98H76.2z"
		/>
	<path d="M147.3,130.5c6.6,0,12.3,1.2,16.9,3.6s8.4,5.7,11.3,9.9c2.9,4.2,5.1,9.1,6.4,14.6c1.4,5.6,2,11.5,2,17.8
		c0,7.6-0.8,14.7-2.4,21.4c-1.6,6.7-4,12.6-7.2,17.6c-3.2,5.1-7.4,9.1-12.4,12c-5,2.9-11.1,4.4-18.2,4.4c-5.1,0-10.1-0.8-15-2.3
		s-9.3-3.7-13.2-6.4l9.4-14c3,2,6.1,3.4,9.5,4.4c3.3,1,6.3,1.5,9,1.5c7.3,0,13-3.2,17.1-9.6c4.2-6.4,6-16.4,5.7-30l3.9,2.5
		c-2.1,5.1-5.5,9.3-9.9,12.4c-4.5,3.1-9.8,4.7-16.1,4.7c-6.2,0-11.7-1.5-16.5-4.4c-4.9-2.9-8.6-6.9-11.3-11.8
		c-2.7-4.9-4.1-10.5-4.1-16.8c0-6.2,1.4-11.6,4.3-16.3c2.9-4.7,7-8.4,12.3-11.1C134,131.8,140.2,130.5,147.3,130.5z M147.3,146.6
		c-3.1,0-5.8,0.7-8.3,2.1c-2.4,1.4-4.3,3.3-5.7,5.7c-1.4,2.4-2.1,5.2-2.1,8.4c0,3.2,0.7,6,2.1,8.5c1.4,2.5,3.3,4.5,5.7,5.9
		c2.4,1.4,5.2,2.1,8.3,2.1s5.8-0.7,8.3-2.1c2.4-1.4,4.4-3.4,5.8-5.9c1.4-2.5,2.2-5.4,2.2-8.5c0-3.2-0.7-6-2.2-8.4
		c-1.4-2.4-3.4-4.3-5.8-5.7C153.1,147.3,150.4,146.6,147.3,146.6z"/>
	<path d="M206.7,203l-13.9-7.6l43.4-63.4l11.5,10.8L206.7,203z M192.8,210.7v-15.3l10.8-1.1h70v16.4H192.8z M238.4,230v-87.5
		l-2.1-10.5h20.2v98H238.4z"/>
	<path d="M318.8,231.7c-4.5,0-9.1-0.7-13.8-2.2c-4.7-1.5-9-3.7-12.7-6.7c-3.8-3-6.6-6.7-8.3-11.1l17.5-5.2c2.1,3,4.5,5.2,7.3,6.6
		c2.8,1.4,5.8,2.1,8.9,2.1c4.9,0,8.8-1.5,11.8-4.4c3-2.9,4.5-6.9,4.5-11.8c0-4.6-1.5-8.4-4.4-11.5c-2.9-3.1-6.8-4.6-11.7-4.6
		c-2.9,0-5.6,0.7-8,2c-2.4,1.3-4.3,2.8-5.6,4.6l-17.2-3.8L293,132h55.4v17.4h-52.6l-2.8-16.8h19l-7.7,54.9l-10.2-1.8
		c0.8-1.7,2.1-3.5,3.9-5.5c1.8-2,4-3.9,6.7-5.8c2.7-1.9,5.7-3.4,9-4.5c3.4-1.1,7.1-1.6,11.2-1.5c5.3,0,10.2,1.3,14.6,3.9
		c4.4,2.6,7.9,6.1,10.4,10.5c2.6,4.4,3.8,9.6,3.8,15.5c0,6.6-1.5,12.5-4.5,17.5c-3,5-7.1,9-12.3,11.8
		C331.8,230.3,325.7,231.7,318.8,231.7z"/>
</g>
</svg>
