<?xml version="1.0" encoding="utf-8"?>
<!-- Generator: Adobe Illustrator 24.2.3, SVG Export Plug-In . SVG Version: 6.00 Build 0)  -->
<svg version="1.1" id="Layer_1" xmlns="http://www.w3.org/2000/svg" xmlns:xlink="http://www.w3.org/1999/xlink" x="0px" y="0px"
	 viewBox="0 0 1018 90" style="enable-background:new 0 0 1018 90;" xml:space="preserve">
<style type="text/css">
	.st0{fill:#FFFFFF;}
</style>
<g>
	<path class="st0" d="M21.7,88L0.3,5h16.5c7.3,34.4,12.7,57.3,13.8,66.5h0.1c2.8-13.7,12-46.1,17-66.5h14.2
		c4.5,16.8,13.9,52.4,16.3,65.8h0.1C81,53.9,90.3,19.3,93.8,5h15.1l-23,83H69.7c-4.6-18.6-13-49.8-15.6-62.6H54
		c-2.8,13.9-11.4,45-16.1,62.6H21.7z"/>
	<path class="st0" d="M125.1,60.2c0,9.3,4.7,17.3,13.8,17.3c8,0,10.4-3.6,12.1-7.6h14.9c-2.3,7.7-8.9,19.4-27.4,19.4
		c-19.9,0-28.4-15.4-28.4-31.5c0-19,9.7-33.1,29-33.1c20.7,0,27.6,15.5,27.6,30.2c0,2,0,3.4-0.2,5.2H125.1z M151.9,50.7
		c-0.1-8.2-3.7-14.9-12.8-14.9c-9,0-12.8,6.3-13.6,14.9H151.9z"/>
	<path class="st0" d="M256.8,72.9c0,5.8,0.5,13.5,0.8,15.1h-14.2c-0.5-1.3-0.8-4.4-0.9-6.7c-2.2,3.7-6.6,8.2-17.8,8.2
		c-14.7,0-20.9-9.7-20.9-19.2c0-14,11.1-20.4,29.2-20.4c3.4,0,7.2,0,9.3,0v-4.3c0-4.7-1.6-9.8-10.7-9.8c-8.2,0-9.8,3.8-10.7,8.3
		h-14.2c0.9-10.1,7.1-19.3,25.5-19.2c16,0.1,24.7,6.4,24.7,20.9V72.9z M242.3,59.3c-1.6,0-5.3,0-7.9,0c-10.9,0-15.7,3.2-15.7,10.1
		c0,5.1,3.3,9.2,9.9,9.2c12.2,0,13.7-8.4,13.7-17.5V59.3z"/>
	<path class="st0" d="M273.2,43.1c0-7,0-12.2-0.1-16.7h14.6c0.2,1.5,0.4,7.2,0.4,11.4c2.9-7.5,9.7-12.7,20.1-12.9v14.4
		c-12.4-0.1-20.1,4.3-20.1,20.8V88h-14.9V43.1z"/>
	<path class="st0" d="M328.7,60.2c0,9.3,4.7,17.3,13.8,17.3c8,0,10.4-3.6,12.1-7.6h14.9c-2.3,7.7-8.9,19.4-27.4,19.4
		c-19.9,0-28.4-15.4-28.4-31.5c0-19,9.7-33.1,29-33.1c20.7,0,27.6,15.5,27.6,30.2c0,2,0,3.4-0.2,5.2H328.7z M355.5,50.7
		c-0.1-8.2-3.7-14.9-12.8-14.9c-9,0-12.8,6.3-13.6,14.9H355.5z"/>
	<path class="st0" d="M423,64.1c2,8.9,8.2,13.1,18.6,13.1c10.7,0,15.1-4.6,15.1-11.2c0-7.3-4-10.8-19-14.4
		c-21.5-5.1-27.4-12.8-27.4-24.2c0-13.7,10.2-23.6,29.4-23.6c21.2,0,29.7,11.7,30.9,23.4h-15.7c-1.1-5.9-4.5-11.6-15.6-11.6
		c-8.2,0-13,3.5-13,10.1c0,6.5,3.9,9.1,17.7,12.3c23.9,5.7,28.8,14.8,28.8,26.1c0,14.5-10.9,25-32.2,25c-20.9,0-31.3-10.7-33.1-25
		H423z"/>
	<path class="st0" d="M497.5,60.2c0,9.3,4.7,17.3,13.8,17.3c8,0,10.4-3.6,12.1-7.6h14.9c-2.3,7.7-8.9,19.4-27.4,19.4
		c-19.9,0-28.4-15.4-28.4-31.5c0-19,9.7-33.1,29-33.1c20.7,0,27.6,15.5,27.6,30.2c0,2,0,3.4-0.2,5.2H497.5z M524.3,50.7
		c-0.1-8.2-3.7-14.9-12.8-14.9c-9,0-12.8,6.3-13.6,14.9H524.3z"/>
	<path class="st0" d="M551.8,41.9c0-5.3,0-10.9-0.1-15.5h14.4c0.3,1.7,0.5,6.7,0.6,8.6c2.2-4.4,7.2-10.1,18.3-10.1
		c12.1,0,20.4,7.9,20.4,23.7V88h-14.9V50.3c0-7.7-2.7-13.2-10.9-13.2c-8.7,0-13,5.7-13,17.1V88h-14.9V41.9z"/>
	<path class="st0" d="M621.6,41.9c0-5.3,0-10.9-0.1-15.5h14.4c0.3,1.7,0.5,6.7,0.6,8.6c2.2-4.4,7.2-10.1,18.3-10.1
		c12.1,0,20.4,7.9,20.4,23.7V88h-14.9V50.3c0-7.7-2.7-13.2-10.9-13.2c-8.7,0-13,5.7-13,17.1V88h-14.9V41.9z"/>
	<path class="st0" d="M706.2,0.2v34c2.8-4.5,8-9.3,18.1-9.3c10.9,0,20.6,6.3,20.6,23.6V88h-14.8V50.8c0-8.9-3.4-13.6-11.1-13.6
		c-10,0-12.9,7.2-12.9,17.8V88h-14.9V0.2H706.2z"/>
	<path class="st0" d="M772.3,60.2c0,9.3,4.7,17.3,13.8,17.3c8,0,10.4-3.6,12.1-7.6h14.9c-2.3,7.7-8.9,19.4-27.4,19.4
		c-19.9,0-28.4-15.4-28.4-31.5c0-19,9.7-33.1,29-33.1c20.7,0,27.6,15.5,27.6,30.2c0,2,0,3.4-0.2,5.2H772.3z M799,50.7
		c-0.1-8.2-3.7-14.9-12.8-14.9c-9,0-12.8,6.3-13.6,14.9H799z"/>
	<path class="st0" d="M826.7,0.2h14.9v14.6h-14.9V0.2z M826.7,26.3h14.9V88h-14.9V26.3z"/>
	<path class="st0" d="M867.2,69.8c1.4,5.5,5.8,8.7,12.8,8.7c7.2,0,9.9-2.8,9.9-7.2c0-4.6-2.7-6.5-12.5-8.9
		c-19.2-4.7-22.6-10.7-22.6-19.3c0-9,6.4-18.2,24-18.2c17.7,0,24.1,9.9,24.7,18.3h-14.2c-0.7-2.9-2.7-7.6-11.2-7.6
		c-6.6,0-8.7,3.1-8.7,6.3c0,3.6,2.1,5.3,12.5,7.8c19.9,4.7,23.1,11.5,23.1,20.5c0,10.4-8,19.2-25.6,19.2c-17.7,0-25.5-8.7-26.9-19.7
		H867.2z"/>
	<path class="st0" d="M928.5,60.2c0,9.3,4.7,17.3,13.8,17.3c8,0,10.4-3.6,12.1-7.6h14.9c-2.3,7.7-8.9,19.4-27.4,19.4
		c-19.9,0-28.4-15.4-28.4-31.5c0-19,9.7-33.1,29-33.1c20.7,0,27.6,15.5,27.6,30.2c0,2,0,3.4-0.2,5.2H928.5z M955.3,50.7
		c-0.1-8.2-3.7-14.9-12.8-14.9c-9,0-12.8,6.3-13.6,14.9H955.3z"/>
	<path class="st0" d="M982.7,43.1c0-7,0-12.2-0.1-16.7h14.6c0.2,1.5,0.4,7.2,0.4,11.4c2.9-7.5,9.7-12.7,20-12.9v14.4
		c-12.4-0.1-20,4.3-20,20.8V88h-14.9V43.1z"/>
</g>
</svg>
